<svg xmlns="http://www.w3.org/2000/svg" xmlns:xlink="http://www.w3.org/1999/xlink" version="1.1" width="256" height="256" viewBox="0 0 256 256" xml:space="preserve">
<defs>
</defs>
<g style="stroke: none; stroke-width: 0; stroke-dasharray: none; stroke-linecap: butt; stroke-linejoin: miter; stroke-miterlimit: 10; fill: none; fill-rule: nonzero; opacity: 1;" transform="translate(1.4065934065934016 1.4065934065934016) scale(2.81 2.81)" >
	<circle cx="45" cy="45" r="45" style="stroke: none; stroke-width: 1; stroke-dasharray: none; stroke-linecap: butt; stroke-linejoin: miter; stroke-miterlimit: 10; fill: rgb(230,62,50); fill-rule: nonzero; opacity: 1;" transform="  matrix(1 0 0 1 0 0) "/>
	<path d="M 65.592 29.574 h -5.395 h -3.776 v -3.481 c 0 -3.635 -2.957 -6.593 -6.593 -6.593 h -9.656 c -3.635 0 -6.593 2.958 -6.593 6.593 v 3.481 h -3.777 h -5.394 c -1.104 0 -2 0.896 -2 2 s 0.896 2 2 2 h 3.394 V 60.41 c 0 5.563 4.526 10.09 10.09 10.09 h 14.215 c 5.563 0 10.09 -4.526 10.09 -10.09 V 33.574 h 3.395 c 1.104 0 2 -0.896 2 -2 S 66.696 29.574 65.592 29.574 z M 37.579 26.093 c 0 -1.43 1.163 -2.593 2.593 -2.593 h 9.656 c 1.43 0 2.593 1.163 2.593 2.593 v 3.481 H 37.579 V 26.093 z M 58.197 60.41 c 0 3.358 -2.731 6.09 -6.09 6.09 H 37.892 c -3.358 0 -6.09 -2.731 -6.09 -6.09 V 33.574 h 3.777 h 18.842 h 3.776 V 60.41 z" style="stroke: none; stroke-width: 1; stroke-dasharray: none; stroke-linecap: butt; stroke-linejoin: miter; stroke-miterlimit: 10; fill: rgb(255,255,255); fill-rule: nonzero; opacity: 1;" transform=" matrix(1 0 0 1 0 0) " stroke-linecap="round" />
	<path d="M 40.3 39.566 c -1.104 0 -2 0.896 -2 2 V 56.78 c 0 1.104 0.896 2 2 2 s 2 -0.896 2 -2 V 41.566 C 42.3 40.462 41.404 39.566 40.3 39.566 z" style="stroke: none; stroke-width: 1; stroke-dasharray: none; stroke-linecap: butt; stroke-linejoin: miter; stroke-miterlimit: 10; fill: rgb(255,255,255); fill-rule: nonzero; opacity: 1;" transform=" matrix(1 0 0 1 0 0) " stroke-linecap="round" />
	<path d="M 49.7 39.566 c -1.104 0 -2 0.896 -2 2 V 56.78 c 0 1.104 0.896 2 2 2 s 2 -0.896 2 -2 V 41.566 C 51.7 40.462 50.805 39.566 49.7 39.566 z" style="stroke: none; stroke-width: 1; stroke-dasharray: none; stroke-linecap: butt; stroke-linejoin: miter; stroke-miterlimit: 10; fill: rgb(255,255,255); fill-rule: nonzero; opacity: 1;" transform=" matrix(1 0 0 1 0 0) " stroke-linecap="round" />
</g>
</svg>