<svg xmlns="http://www.w3.org/2000/svg" xmlns:xlink="http://www.w3.org/1999/xlink" version="1.1" width="256" height="256" viewBox="0 0 256 256" xml:space="preserve">

<defs>
</defs>
<g style="stroke: none; stroke-width: 0; stroke-dasharray: none; stroke-linecap: butt; stroke-linejoin: miter; stroke-miterlimit: 10; fill: none; fill-rule: nonzero; opacity: 1;" transform="translate(1.4065934065934016 1.4065934065934016) scale(2.81 2.81)" >
	<circle cx="45" cy="45" r="45" style="stroke: none; stroke-width: 1; stroke-dasharray: none; stroke-linecap: butt; stroke-linejoin: miter; stroke-miterlimit: 10; fill: rgb(75,174,79); fill-rule: nonzero; opacity: 1;" transform="  matrix(1 0 0 1 0 0) "/>
	<path d="M 68.662 46.112 c 0.018 -0.027 0.029 -0.057 0.046 -0.084 c 0.051 -0.084 0.1 -0.168 0.138 -0.259 c 0.016 -0.038 0.023 -0.079 0.037 -0.118 c 0.029 -0.084 0.06 -0.166 0.077 -0.255 C 68.986 45.266 69 45.134 69 45 s -0.014 -0.266 -0.04 -0.395 c -0.018 -0.088 -0.049 -0.171 -0.077 -0.255 c -0.014 -0.039 -0.021 -0.08 -0.037 -0.118 c -0.038 -0.091 -0.088 -0.176 -0.138 -0.259 c -0.016 -0.027 -0.028 -0.058 -0.046 -0.084 c -0.073 -0.109 -0.156 -0.211 -0.249 -0.303 L 53.309 28.481 c -0.781 -0.781 -2.047 -0.781 -2.828 0 c -0.781 0.781 -0.781 2.047 0 2.828 L 62.172 43 H 23 c -1.104 0 -2 0.896 -2 2 s 0.896 2 2 2 h 39.172 L 50.48 58.691 c -0.781 0.781 -0.781 2.047 0 2.828 c 0.391 0.391 0.902 0.586 1.414 0.586 s 1.023 -0.195 1.414 -0.586 l 15.104 -15.104 C 68.505 46.323 68.589 46.221 68.662 46.112 z" style="stroke: none; stroke-width: 1; stroke-dasharray: none; stroke-linecap: butt; stroke-linejoin: miter; stroke-miterlimit: 10; fill: rgb(255,255,255); fill-rule: nonzero; opacity: 1;" transform=" matrix(1 0 0 1 0 0) " stroke-linecap="round" />
</g>
</svg>